<?xml version="1.0" encoding="UTF-8" standalone="no" ?>
<!DOCTYPE svg PUBLIC "-//W3C//DTD SVG 1.1//EN" "http://www.w3.org/Graphics/SVG/1.1/DTD/svg11.dtd">
<svg xmlns="http://www.w3.org/2000/svg" xmlns:xlink="http://www.w3.org/1999/xlink" version="1.1" width="1080" height="1080" viewBox="0 0 1080 1080" xml:space="preserve">
<desc>Created with Fabric.js 5.2.4</desc>
<defs>
</defs>
<g transform="matrix(1 0 0 1 540 540)" id="7e22ca63-f741-4e89-ae49-309d0190d939"  >
<rect style="stroke: none; stroke-width: 1; stroke-dasharray: none; stroke-linecap: butt; stroke-dashoffset: 0; stroke-linejoin: miter; stroke-miterlimit: 4; fill: rgb(255,255,255); fill-rule: nonzero; opacity: 1; visibility: hidden;" vector-effect="non-scaling-stroke"  x="-540" y="-540" rx="0" ry="0" width="1080" height="1080" />
</g>
<g transform="matrix(1 0 0 1 540 540)" id="e0c5f54b-2136-4e71-94e4-a80898a6f741"  >
</g>
<g transform="matrix(83.22 0 0 164.03 558.68 540)" id="0935bf47-9d5a-46ab-9c04-fa293ac48217"  >
<path style="stroke: rgb(0,0,0); stroke-width: 7; stroke-dasharray: none; stroke-linecap: butt; stroke-dashoffset: 0; stroke-linejoin: miter; stroke-miterlimit: 4; fill: rgb(13,73,215); fill-rule: nonzero; opacity: 0.7;" vector-effect="non-scaling-stroke"  transform=" translate(-8, -8.42)" d="M 0.036 3.314 C 0.13877111930770686 3.057784991763922 0.4297406185483167 2.9333395751656304 0.6859999999999999 3.036 L 2.443 3.739 C 2.8005659092494386 3.882000747920931 3.1994340907505623 3.8820007479209306 3.557000000000001 3.739 L 4.571000000000001 3.3329999999999997 C 5.167041297546195 3.094576537908656 5.831958702453805 3.0945765379086554 6.428 3.332999999999999 L 7.4430000000000005 3.739 C 7.800565909249438 3.8820007479209306 8.199434090750561 3.8820007479209306 8.557 3.739 L 9.571 3.3329999999999997 C 10.167041297546193 3.0945765379086567 10.831958702453804 3.0945765379086567 11.427999999999999 3.3329999999999997 L 12.443 3.739 C 12.800565909249437 3.882000747920931 13.199434090750561 3.8820007479209315 13.557 3.7390000000000003 L 15.314 3.036 C 15.48066991008361 2.9651328617962758 15.672632453606326 2.989935170534013 15.81581713954996 3.1008367301068476 C 15.959001825493596 3.2117382896796816 16.03102102973149 3.3913991002516397 16.004085488156463 3.57049540620049 C 15.977149946581436 3.74959171214934 15.855471162514913 3.900120932377592 15.686 3.9639999999999995 L 13.928 4.667 C 13.331958702453807 4.905423462091343 12.667041297546195 4.905423462091343 12.071000000000002 4.667 L 11.057000000000002 4.261 C 10.699434090750565 4.117999252079069 10.30056590924944 4.117999252079069 9.943000000000001 4.260999999999999 L 8.928 4.667 C 8.331958702453806 4.905423462091344 7.667041297546195 4.905423462091344 7.071 4.667 L 6.057 4.261 C 5.699434090750563 4.11799925207907 5.300565909249438 4.11799925207907 4.9430000000000005 4.261 L 3.928000000000001 4.667 C 3.331958702453806 4.905423462091344 2.667041297546195 4.905423462091344 2.071 4.667 L 0.314 3.964 C 0.05778499176392182 3.861228880692293 -0.06666042483436979 3.570259381451683 0.035999999999999976 3.314 M 0.035999999999999976 6.314 C 0.13877111930770658 6.0577849917639215 0.4297406185483164 5.93333957516563 0.6859999999999997 6.036 L 2.4429999999999996 6.739 C 2.8005659092494377 6.882000747920931 3.199434090750561 6.88200074792093 3.556999999999999 6.739 L 4.571 6.333 C 5.167041297546194 6.094576537908656 5.831958702453804 6.094576537908656 6.427999999999999 6.332999999999999 L 7.443 6.739 C 7.800565909249438 6.882000747920931 8.199434090750561 6.882000747920931 8.557 6.739000000000001 L 9.571 6.333 C 10.167041297546193 6.094576537908657 10.831958702453804 6.094576537908657 11.427999999999999 6.333 L 12.443 6.739 C 12.800565909249437 6.882000747920931 13.199434090750561 6.882000747920931 13.557 6.739000000000001 L 15.314 6.036 C 15.48066991008361 5.965132861796276 15.672632453606326 5.989935170534013 15.81581713954996 6.100836730106847 C 15.959001825493596 6.211738289679682 16.03102102973149 6.39139910025164 16.004085488156463 6.570495406200489 C 15.977149946581436 6.74959171214934 15.855471162514913 6.900120932377591 15.686 6.9639999999999995 L 13.928 7.667 C 13.331958702453807 7.905423462091343 12.667041297546195 7.905423462091343 12.071000000000002 7.667 L 11.057000000000002 7.261 C 10.699434090750565 7.117999252079069 10.30056590924944 7.117999252079069 9.943000000000001 7.260999999999999 L 8.928 7.667 C 8.331958702453806 7.905423462091344 7.667041297546195 7.905423462091344 7.071 7.667 L 6.057 7.261 C 5.699434090750563 7.11799925207907 5.300565909249438 7.11799925207907 4.9430000000000005 7.261 L 3.928000000000001 7.667 C 3.331958702453806 7.905423462091344 2.667041297546195 7.905423462091344 2.071 7.667 L 0.314 6.964 C 0.05778499176392171 6.861228880692294 -0.06666042483437007 6.570259381451684 0.035999999999999865 6.314 M 0.035999999999999976 9.314 C 0.13877111930770658 9.057784991763922 0.4297406185483164 8.933339575165629 0.6859999999999997 9.036 L 2.4429999999999996 9.738999999999999 C 2.8005659092494377 9.88200074792093 3.199434090750561 9.88200074792093 3.556999999999999 9.738999999999999 L 4.571 9.332999999999998 C 5.167041297546194 9.094576537908655 5.831958702453804 9.094576537908655 6.427999999999999 9.332999999999998 L 7.443 9.738999999999999 C 7.800565909249438 9.88200074792093 8.199434090750561 9.88200074792093 8.557 9.738999999999999 L 9.571 9.332999999999998 C 10.167041297546193 9.094576537908655 10.831958702453804 9.094576537908656 11.427999999999999 9.332999999999998 L 12.443 9.738999999999999 C 12.800565909249437 9.88200074792093 13.199434090750561 9.88200074792093 13.557 9.738999999999999 L 15.314 9.036 C 15.480669910083607 8.965132861796285 15.672632453606319 8.989935170534025 15.815817139549948 9.10083673010686 C 15.959001825493576 9.211738289679692 16.031021029731473 9.391399100251645 16.00408548815645 9.570495406200491 C 15.977149946581422 9.749591712149337 15.855471162514906 9.900120932377588 15.686 9.964 L 13.928 10.667 C 13.331958702453807 10.905423462091342 12.667041297546195 10.905423462091342 12.071000000000002 10.667 L 11.057000000000002 10.261 C 10.699434090750565 10.117999252079068 10.30056590924944 10.117999252079068 9.943000000000001 10.261 L 8.928 10.667 C 8.331958702453806 10.905423462091344 7.667041297546195 10.905423462091344 7.071 10.667 L 6.057 10.261 C 5.699434090750563 10.117999252079068 5.300565909249438 10.117999252079068 4.9430000000000005 10.261 L 3.928000000000001 10.667 C 3.331958702453806 10.905423462091344 2.667041297546195 10.905423462091344 2.071 10.667 L 0.314 9.964 C 0.05778499176392171 9.861228880692293 -0.06666042483437007 9.570259381451683 0.035999999999999865 9.314 M 0.035999999999999976 12.314 C 0.13877111930770658 12.057784991763922 0.4297406185483164 11.933339575165629 0.6859999999999997 12.036 L 2.4429999999999996 12.738999999999999 C 2.8005659092494377 12.88200074792093 3.199434090750561 12.88200074792093 3.556999999999999 12.738999999999999 L 4.571 12.332999999999998 C 5.167041297546194 12.094576537908655 5.831958702453804 12.094576537908655 6.427999999999999 12.332999999999998 L 7.443 12.738999999999999 C 7.800565909249438 12.88200074792093 8.199434090750561 12.88200074792093 8.557 12.738999999999999 L 9.571 12.332999999999998 C 10.167041297546193 12.094576537908655 10.831958702453804 12.094576537908656 11.427999999999999 12.332999999999998 L 12.443 12.738999999999999 C 12.800565909249437 12.88200074792093 13.199434090750561 12.88200074792093 13.557 12.738999999999999 L 15.314 12.036 C 15.480669910083607 11.965132861796285 15.672632453606319 11.989935170534025 15.815817139549948 12.10083673010686 C 15.959001825493576 12.211738289679692 16.031021029731473 12.391399100251645 16.00408548815645 12.570495406200491 C 15.977149946581422 12.749591712149337 15.855471162514906 12.900120932377588 15.686 12.964 L 13.928 13.667 C 13.331958702453807 13.905423462091342 12.667041297546195 13.905423462091342 12.071000000000002 13.667 L 11.057000000000002 13.261 C 10.699434090750565 13.117999252079068 10.30056590924944 13.117999252079068 9.943000000000001 13.261 L 8.928 13.667 C 8.331958702453806 13.905423462091344 7.667041297546195 13.905423462091344 7.071 13.667 L 6.057 13.261 C 5.699434090750563 13.117999252079068 5.300565909249438 13.117999252079068 4.9430000000000005 13.261 L 3.928000000000001 13.667 C 3.331958702453806 13.905423462091344 2.667041297546195 13.905423462091344 2.071 13.667 L 0.3140000000000007 12.964 C 0.05778499176392243 12.861228880692293 -0.06666042483436935 12.570259381451683 0.03600000000000059 12.314" stroke-linecap="round" />
</g>
<g transform="matrix(1 0 0 1 540.5 555.19)" style="" id="7b977602-d537-47b4-9ed1-e42a3c8eb317"  >
		<text xml:space="preserve" font-family="Raleway" font-size="131" font-style="normal" font-weight="900" text-decoration="overline underline" style="stroke: none; stroke-width: 1; stroke-dasharray: none; stroke-linecap: butt; stroke-dashoffset: 0; stroke-linejoin: miter; stroke-miterlimit: 4; fill: rgb(0,0,0); fill-rule: nonzero; opacity: 1; white-space: pre;" ><tspan x="-238.21" y="41.15" >F.L.O.W</tspan></text>
</g>
</svg>